<?xml version="1.0" standalone="no"?>
<!DOCTYPE svg PUBLIC "-//W3C//DTD SVG 20010904//EN"
 "http://www.w3.org/TR/2001/REC-SVG-20010904/DTD/svg10.dtd">
<svg version="1.0" xmlns="http://www.w3.org/2000/svg"
 width="260.000000pt" height="260.000000pt" viewBox="0 0 260.000000 260.000000"
 preserveAspectRatio="xMidYMid meet">
<metadata>
Created by potrace 1.11, written by Peter Selinger 2001-2013
</metadata>
<g transform="translate(0.000000,260.000000) scale(0.100000,-0.100000)"
fill="#000000" stroke="none">
<path d="M350 2384 c-85 -23 -151 -65 -187 -118 -73 -107 -44 -236 70 -313 67
-45 104 -54 244 -60 106 -5 131 -3 193 16 80 25 153 82 165 129 9 35 -23 62
-73 62 -30 0 -43 -8 -86 -54 -45 -48 -58 -56 -111 -66 -71 -15 -165 -2 -204
28 -70 52 -89 135 -49 212 27 52 63 76 140 91 86 17 155 -1 218 -58 41 -36 58
-46 89 -47 120 -3 80 112 -56 165 -76 29 -270 37 -353 13z"/>
<path d="M1001 2361 c-20 -20 -21 -32 -21 -226 0 -192 1 -206 20 -225 25 -25
95 -27 128 -4 20 14 22 23 22 111 l0 96 65 -6 c36 -4 75 -11 87 -18 13 -6 66
-54 119 -105 96 -94 96 -94 147 -94 51 0 82 17 82 45 0 20 -94 119 -147 154
-28 19 -40 32 -32 35 8 2 33 9 57 15 127 35 143 153 29 213 -40 22 -55 23
-289 26 -238 3 -247 3 -267 -17z m394 -61 c50 -11 79 -44 64 -71 -16 -31 -55
-41 -186 -47 l-123 -5 0 67 0 66 103 0 c56 0 120 -5 142 -10z"/>
<path d="M1800 2360 c-19 -19 -20 -33 -20 -220 0 -187 1 -201 20 -220 20 -20
31 -20 302 -18 255 3 282 5 292 21 8 12 8 22 0 35 -10 15 -34 17 -228 20
l-216 2 0 70 0 70 186 0 c184 0 224 6 224 35 0 29 -40 35 -224 35 l-186 0 0
55 0 55 201 0 c207 0 239 5 239 40 0 11 -9 24 -19 30 -12 6 -121 10 -285 10
-253 0 -267 -1 -286 -20z"/>
<path d="M447 1542 c-34 -21 -287 -416 -287 -449 0 -28 27 -43 77 -43 49 0 53
4 97 73 l37 57 157 0 157 0 28 -50 c15 -27 38 -56 50 -65 44 -31 137 -9 137
32 0 30 -271 433 -301 448 -39 20 -118 19 -152 -3z m137 -199 l56 -93 -115 0
-115 0 46 77 c25 43 50 86 56 96 5 10 11 17 13 15 1 -1 28 -45 59 -95z"/>
<path d="M992 1528 c-7 -7 -12 -19 -12 -28 0 -34 22 -40 137 -40 l113 0 0
-185 c0 -172 1 -186 20 -205 25 -25 95 -27 128 -4 21 15 22 20 22 205 l0 189
114 0 c91 0 118 3 130 16 9 8 16 19 16 24 0 5 -7 16 -16 24 -13 14 -57 16
-328 16 -229 0 -315 -3 -324 -12z"/>
<path d="M1810 1520 c-19 -19 -20 -33 -20 -220 0 -187 1 -201 20 -220 20 -20
31 -20 302 -18 255 3 282 5 292 21 8 12 8 22 0 35 -10 15 -34 17 -228 20
l-216 2 0 70 0 70 186 0 c184 0 224 6 224 35 0 29 -40 35 -224 35 l-186 0 0
55 0 55 201 0 c207 0 239 5 239 40 0 11 -9 24 -19 30 -12 6 -121 10 -285 10
-253 0 -267 -1 -286 -20z"/>
<path d="M465 761 c-121 -31 -204 -148 -192 -269 8 -98 68 -183 153 -218 43
-18 155 -18 198 0 53 22 112 82 136 138 18 42 21 65 18 118 -6 73 -23 113 -69
159 -61 62 -166 93 -244 72z"/>
<path d="M1732 754 c-12 -8 -22 -22 -22 -31 0 -24 240 -421 268 -443 18 -15
40 -20 83 -20 50 0 63 4 88 28 34 31 261 410 261 434 0 29 -29 48 -74 48 -23
0 -50 -6 -58 -12 -9 -7 -60 -94 -113 -193 -53 -99 -98 -181 -100 -183 -1 -1
-44 75 -95 170 -51 95 -102 183 -113 196 -25 27 -91 30 -125 6z"/>
<path d="M1030 730 c-19 -19 -20 -33 -20 -220 0 -187 1 -201 20 -220 20 -20
31 -20 302 -18 255 3 282 5 292 21 8 12 8 22 0 35 -10 15 -34 17 -228 20
l-216 2 0 70 0 70 186 0 c184 0 224 6 224 35 0 29 -40 35 -224 35 l-186 0 0
55 0 55 201 0 c119 0 208 4 220 10 25 14 25 46 0 60 -12 6 -121 10 -285 10
-253 0 -267 -1 -286 -20z"/>
</g>
</svg>
